<svg width="68" height="58" viewBox="0 0 68 58" fill="none" xmlns="http://www.w3.org/2000/svg">
<g clip-path="url(#clip0_6_144)" filter="url(#filter0_d_6_144)">
<path d="M63.843 1.30696V48.781C63.465 49.535 62.698 50.043 61.812 50.043C61.748 50.043 61.685 50.04 61.622 50.035L61.63 50.036H6.194C6.128 50.044 6.051 50.048 5.973 50.048C4.876 50.048 3.987 49.159 3.987 48.062C3.987 47.984 3.991 47.907 4 47.831L3.999 47.84C3.999 32.6133 3.999 17.387 3.999 2.16096C3.994 2.10596 3.99 2.04196 3.99 1.97696C3.99 0.879962 4.879 -0.00903808 5.976 -0.00903808C6.047 -0.00903808 6.116 -0.00503808 6.185 0.00196192L6.176 0.000961917C24.666 0.000961917 43.1447 0.000961917 61.612 0.000961917C61.687 -0.00803808 61.774 -0.0140381 61.863 -0.0140381C62.75 -0.0140381 63.511 0.524962 63.837 1.29296L63.842 1.30696H63.843ZM26.544 24.983V30.575C26.545 30.941 26.596 31.295 26.69 31.631L26.683 31.603C27.038 32.503 27.901 33.128 28.909 33.128C29.419 33.128 29.892 32.968 30.28 32.695L30.272 32.7C33.6 30.784 36.892 28.85 40.185 26.899C40.865 26.531 41.318 25.823 41.318 25.009C41.318 24.195 40.864 23.487 40.196 23.124L40.185 23.118C36.892 21.097 33.513 19.163 30.133 17.212C29.78 16.992 29.351 16.861 28.892 16.861C27.583 16.861 26.523 17.922 26.523 19.23C26.523 19.28 26.525 19.33 26.528 19.379V19.372C26.65 21.236 26.545 23.118 26.545 24.982L26.544 24.983ZM13.443 6.55096V3.57196H7.572V6.55096H13.443ZM7.484 46.376H13.442V43.449H7.484V46.376ZM22.833 3.57096H17.066V6.53296H22.833V3.57096ZM26.456 3.57096V6.53296H32.24V3.48396L26.456 3.57096ZM41.613 6.55096V3.57196H35.846V6.53396L41.613 6.55096ZM51.038 3.57096H45.219V6.53296H51.038V3.57096ZM41.631 46.394V43.554H35.847V46.481L41.631 46.394ZM22.815 46.394V43.554H17.048V46.481L22.815 46.394ZM32.24 46.394V43.554H26.473V46.498L32.24 46.394ZM51.038 43.449H45.219V46.376H51.038V43.449ZM60.289 6.55096V3.48496H54.627V6.55096H60.289ZM60.289 43.449H54.627V46.393H60.306L60.289 43.449Z" fill="#BDAE82"/>
</g>
<defs>
<filter id="filter0_d_6_144" x="0" y="0" width="68" height="58" filterUnits="userSpaceOnUse" color-interpolation-filters="sRGB">
<feFlood flood-opacity="0" result="BackgroundImageFix"/>
<feColorMatrix in="SourceAlpha" type="matrix" values="0 0 0 0 0 0 0 0 0 0 0 0 0 0 0 0 0 0 127 0" result="hardAlpha"/>
<feOffset dy="4"/>
<feGaussianBlur stdDeviation="2"/>
<feComposite in2="hardAlpha" operator="out"/>
<feColorMatrix type="matrix" values="0 0 0 0 0 0 0 0 0 0 0 0 0 0 0 0 0 0 0.25 0"/>
<feBlend mode="normal" in2="BackgroundImageFix" result="effect1_dropShadow_6_144"/>
<feBlend mode="normal" in="SourceGraphic" in2="effect1_dropShadow_6_144" result="shape"/>
</filter>
<clipPath id="clip0_6_144">
<rect width="60" height="50" fill="white" transform="translate(4)"/>
</clipPath>
</defs>
</svg>
