<?xml version="1.0" encoding="UTF-8"?>
<!DOCTYPE svg PUBLIC "-//W3C//DTD SVG 1.1//EN" "http://www.w3.org/Graphics/SVG/1.1/DTD/svg11.dtd">
<svg xmlns="http://www.w3.org/2000/svg" version="1.1" width="30px" height="30px" style="shape-rendering:geometricPrecision; text-rendering:geometricPrecision; image-rendering:optimizeQuality; fill-rule:evenodd; clip-rule:evenodd"
  xmlns:xlink="http://www.w3.org/1999/xlink">
  <g>
    <path style="opacity:0" fill="#fdfdfd" d="M -0.5,-0.5 C 9.5,-0.5 19.5,-0.5 29.5,-0.5C 29.5,9.5 29.5,19.5 29.5,29.5C 19.5,29.5 9.5,29.5 -0.5,29.5C -0.5,19.5 -0.5,9.5 -0.5,-0.5 Z"/>
  </g>
  <g>
    <path style="opacity:1" fill="#010101" d="M 11.5,26.5 C 9.95496,25.7703 9.12162,24.437 9,22.5C 6.43942,23.1121 3.60608,23.2787 0.5,23C 2.08698,22.1376 3.75365,21.4709 5.5,21C 4.74331,18.1524 5.74331,15.819 8.5,14C 11.2321,13.587 13.8987,12.9203 16.5,12C 20.349,8.31821 24.0156,4.48487 27.5,0.5C 28.521,1.00161 28.6877,1.66828 28,2.5C 23.1329,7.0323 18.6329,11.8656 14.5,17C 19.3035,16.6393 21.6368,18.806 21.5,23.5C 18.4786,23.9031 15.9786,25.2365 14,27.5C 12.9302,27.472 12.0968,27.1386 11.5,26.5 Z"/>
  </g>
  <g>
    <path style="opacity:1" fill="#72716f" d="M 11.5,26.5 C 10.6993,24.9582 10.366,23.2915 10.5,21.5C 7.31978,21.8238 6.15312,20.4904 7,17.5C 8.86365,14.7928 11.3637,13.9595 14.5,15C 13.6634,16.0113 13.33,17.1779 13.5,18.5C 16.5959,17.9066 18.9292,18.9066 20.5,21.5C 18.2054,22.1355 16.5387,23.4689 15.5,25.5C 14.3112,26.4287 12.9778,26.762 11.5,26.5 Z"/>
  </g>
</svg>
