<?xml version="1.0" encoding="UTF-8"?>
<!DOCTYPE svg PUBLIC "-//W3C//DTD SVG 1.1//EN" "http://www.w3.org/Graphics/SVG/1.1/DTD/svg11.dtd">
<svg xmlns="http://www.w3.org/2000/svg" version="1.1" width="30px" height="30px" style="shape-rendering:geometricPrecision; text-rendering:geometricPrecision; image-rendering:optimizeQuality; fill-rule:evenodd; clip-rule:evenodd"
  xmlns:xlink="http://www.w3.org/1999/xlink">
  <g>
    <path style="opacity:0" fill="#fefefe" d="M -0.5,-0.5 C 4.5,-0.5 9.5,-0.5 14.5,-0.5C 14.037,6.02248 12.2036,12.0225 9,17.5C 8.16322,11.1635 7.49656,11.4968 7,18.5C 6.04396,19.5786 5.21063,20.7453 4.5,22C 6.83333,22.3333 9.16667,22.6667 11.5,23C 9.39297,24.2635 8.39297,26.0968 8.5,28.5C 12.4603,28.3508 16.4603,28.3508 20.5,28.5C 21.7253,26.1567 21.0586,24.3234 18.5,23C 20.9005,22.8142 23.2338,22.3142 25.5,21.5C 24.7579,20.7132 23.9246,20.0465 23,19.5C 22.6667,17.1667 22.3333,14.8333 22,12.5C 22.0169,18.8078 20.6836,19.1411 18,13.5C 17.1625,8.82045 16.3292,4.15378 15.5,-0.5C 20.1667,-0.5 24.8333,-0.5 29.5,-0.5C 29.5,9.5 29.5,19.5 29.5,29.5C 19.5,29.5 9.5,29.5 -0.5,29.5C -0.5,19.5 -0.5,9.5 -0.5,-0.5 Z"/>
  </g>
  <g>
    <path style="opacity:1" fill="#090909" d="M 14.5,-0.5 C 14.8333,-0.5 15.1667,-0.5 15.5,-0.5C 16.3292,4.15378 17.1625,8.82045 18,13.5C 20.6836,19.1411 22.0169,18.8078 22,12.5C 22.3333,14.8333 22.6667,17.1667 23,19.5C 23.9246,20.0465 24.7579,20.7132 25.5,21.5C 23.2338,22.3142 20.9005,22.8142 18.5,23C 21.0586,24.3234 21.7253,26.1567 20.5,28.5C 16.4603,28.3508 12.4603,28.3508 8.5,28.5C 8.39297,26.0968 9.39297,24.2635 11.5,23C 9.16667,22.6667 6.83333,22.3333 4.5,22C 5.21063,20.7453 6.04396,19.5786 7,18.5C 7.49656,11.4968 8.16322,11.1635 9,17.5C 12.2036,12.0225 14.037,6.02248 14.5,-0.5 Z"/>
  </g>
  <g>
    <path style="opacity:1" fill="#5f5e5c" d="M 17.5,21.5 C 17.6567,20.1266 17.49,18.7932 17,17.5C 16.5026,20.146 16.3359,22.8127 16.5,25.5C 15.5,25.5 14.5,25.5 13.5,25.5C 13.5,21.8333 13.5,18.1667 13.5,14.5C 14.3449,1.19337 15.5116,1.19337 17,14.5C 18.4874,16.9852 20.3208,19.1518 22.5,21C 20.8659,21.4935 19.1992,21.6602 17.5,21.5 Z"/>
  </g>
  <g>
    <path style="opacity:1" fill="#61605e" d="M 12.5,15.5 C 12.5,17.5 12.5,19.5 12.5,21.5C 10.4727,21.6621 8.4727,21.4955 6.5,21C 8.69607,19.3007 10.6961,17.4673 12.5,15.5 Z"/>
  </g>
  <g>
    <path style="opacity:0" fill="#c8c7c5" d="M 13.5,14.5 C 13.5,18.1667 13.5,21.8333 13.5,25.5C 14.5,25.5 15.5,25.5 16.5,25.5C 16.3359,22.8127 16.5026,20.146 17,17.5C 17.49,18.7932 17.6567,20.1266 17.5,21.5C 17.5,23.1667 17.5,24.8333 17.5,26.5C 15.8333,26.5 14.1667,26.5 12.5,26.5C 12.5,24.8333 12.5,23.1667 12.5,21.5C 12.5,19.5 12.5,17.5 12.5,15.5C 12.5,14.8333 12.8333,14.5 13.5,14.5 Z"/>
  </g>
</svg>
