<?xml version="1.0" encoding="UTF-8"?>
<!DOCTYPE svg PUBLIC "-//W3C//DTD SVG 1.1//EN" "http://www.w3.org/Graphics/SVG/1.1/DTD/svg11.dtd">
<svg xmlns="http://www.w3.org/2000/svg" version="1.1" width="30px" height="30px" style="shape-rendering:geometricPrecision; text-rendering:geometricPrecision; image-rendering:optimizeQuality; fill-rule:evenodd; clip-rule:evenodd"
  xmlns:xlink="http://www.w3.org/1999/xlink">
  <g>
    <path style="opacity:0" fill="#fcfcfc" d="M -0.5,-0.5 C 9.5,-0.5 19.5,-0.5 29.5,-0.5C 29.5,1.83333 29.5,4.16667 29.5,6.5C 24.0969,5.97241 18.7636,5.80574 13.5,6C 14.3366,4.98873 14.67,3.82207 14.5,2.5C 12.8008,2.33982 11.1341,2.50649 9.5,3C 8.16667,4.33333 8.16667,5.66667 9.5,7C 7.15175,7.1102 5.65175,8.27686 5,10.5C 5.64599,13.4022 6.47932,16.4022 7.5,19.5C 5.59885,20.2309 3.59885,20.2309 1.5,19.5C 1.2011,21.604 1.53443,23.604 2.5,25.5C 3.19238,24.9747 3.69238,24.3081 4,23.5C 5.72609,24.5762 7.55942,24.7429 9.5,24C 10.208,21.4114 11.5413,19.2447 13.5,17.5C 14.8805,17.9996 15.5472,18.9996 15.5,20.5C 14.9537,22.1347 14.6204,23.8014 14.5,25.5C 16.604,25.7989 18.604,25.4656 20.5,24.5C 19.5,23.8333 18.5,23.1667 17.5,22.5C 18.3928,19.9159 18.7261,17.2492 18.5,14.5C 17.1266,14.6567 15.7932,14.49 14.5,14C 17.3034,12.5486 19.3034,10.3819 20.5,7.5C 23.5,7.5 26.5,7.5 29.5,7.5C 29.5,14.8333 29.5,22.1667 29.5,29.5C 19.5,29.5 9.5,29.5 -0.5,29.5C -0.5,19.5 -0.5,9.5 -0.5,-0.5 Z"/>
  </g>
  <g>
    <path style="opacity:1" fill="#020202" d="M 29.5,6.5 C 29.5,6.83333 29.5,7.16667 29.5,7.5C 26.5,7.5 23.5,7.5 20.5,7.5C 19.3034,10.3819 17.3034,12.5486 14.5,14C 15.7932,14.49 17.1266,14.6567 18.5,14.5C 18.7261,17.2492 18.3928,19.9159 17.5,22.5C 18.5,23.1667 19.5,23.8333 20.5,24.5C 18.604,25.4656 16.604,25.7989 14.5,25.5C 14.6204,23.8014 14.9537,22.1347 15.5,20.5C 15.5472,18.9996 14.8805,17.9996 13.5,17.5C 11.5413,19.2447 10.208,21.4114 9.5,24C 7.55942,24.7429 5.72609,24.5762 4,23.5C 3.69238,24.3081 3.19238,24.9747 2.5,25.5C 1.53443,23.604 1.2011,21.604 1.5,19.5C 3.59885,20.2309 5.59885,20.2309 7.5,19.5C 6.47932,16.4022 5.64599,13.4022 5,10.5C 5.65175,8.27686 7.15175,7.1102 9.5,7C 8.16667,5.66667 8.16667,4.33333 9.5,3C 11.1341,2.50649 12.8008,2.33982 14.5,2.5C 14.67,3.82207 14.3366,4.98873 13.5,6C 18.7636,5.80574 24.0969,5.97241 29.5,6.5 Z"/>
  </g>
  <g>
    <path style="opacity:1" fill="#646361" d="M 20.5,7.5 C 18.3763,8.03118 16.8763,9.36451 16,11.5C 15.5172,10.552 15.3505,9.55198 15.5,8.5C 14.5,8.5 13.5,8.5 12.5,8.5C 12.3601,10.1238 13.0267,11.2904 14.5,12C 13.6433,12.6891 12.9767,13.5224 12.5,14.5C 14.0453,15.4519 15.712,15.7852 17.5,15.5C 17.6602,17.1992 17.4935,18.8659 17,20.5C 16.3873,16.6823 14.3873,15.6823 11,17.5C 10.1628,19.3506 9.32949,21.1839 8.5,23C 6.96509,23.4962 5.46509,23.3295 4,22.5C 2.74254,22.1501 2.40921,21.4835 3,20.5C 4.69946,21.4061 6.5328,21.7394 8.5,21.5C 8.49475,17.9668 7.49475,14.8002 5.5,12C 6.21911,9.44375 7.88578,8.27708 10.5,8.5C 10.0338,6.79881 10.0338,5.29881 10.5,4C 11.5,3.33333 12.5,3.33333 13.5,4C 12.6634,5.01127 12.33,6.17793 12.5,7.5C 15.3817,7.01394 18.0483,7.01394 20.5,7.5 Z"/>
  </g>
</svg>
