<?xml version="1.0" encoding="UTF-8"?>
<!DOCTYPE svg PUBLIC "-//W3C//DTD SVG 1.1//EN" "http://www.w3.org/Graphics/SVG/1.1/DTD/svg11.dtd">
<svg xmlns="http://www.w3.org/2000/svg" version="1.1" width="30px" height="30px" style="shape-rendering:geometricPrecision; text-rendering:geometricPrecision; image-rendering:optimizeQuality; fill-rule:evenodd; clip-rule:evenodd"
  xmlns:xlink="http://www.w3.org/1999/xlink">
  <g>
    <path style="opacity:0" fill="#fefefe" d="M -0.5,-0.5 C 9.5,-0.5 19.5,-0.5 29.5,-0.5C 29.5,2.83333 29.5,6.16667 29.5,9.5C 24.9538,9.73187 20.6205,8.89854 16.5,7C 17.8333,6.66667 19.1667,6.33333 20.5,6C 16.9085,5.21143 13.4085,5.37809 10,6.5C 9.66667,5.5 9.33333,4.5 9,3.5C 8.70457,6.43195 7.20457,8.43195 4.5,9.5C 5.37598,10.2508 6.37598,10.7508 7.5,11C 4.49562,11.1173 1.82895,11.9507 -0.5,13.5C -0.5,8.83333 -0.5,4.16667 -0.5,-0.5 Z"/>
  </g>
  <g>
    <path style="opacity:1" fill="#080808" d="M 29.5,9.5 C 29.5,10.1667 29.5,10.8333 29.5,11.5C 17.6112,11.541 17.6112,12.2077 29.5,13.5C 29.5,14.8333 29.5,16.1667 29.5,17.5C 28.6364,18.6883 27.6364,19.8549 26.5,21C 18.8333,21.6667 11.1667,21.6667 3.5,21C 1.97331,19.9681 0.639972,18.8014 -0.5,17.5C -0.5,16.1667 -0.5,14.8333 -0.5,13.5C 1.82895,11.9507 4.49562,11.1173 7.5,11C 6.37598,10.7508 5.37598,10.2508 4.5,9.5C 7.20457,8.43195 8.70457,6.43195 9,3.5C 9.33333,4.5 9.66667,5.5 10,6.5C 13.4085,5.37809 16.9085,5.21143 20.5,6C 19.1667,6.33333 17.8333,6.66667 16.5,7C 20.6205,8.89854 24.9538,9.73187 29.5,9.5 Z"/>
  </g>
  <g>
    <path style="opacity:1" fill="#858583" d="M 22.5,14.5 C 15.5,14.5 8.5,14.5 1.5,14.5C 3.29221,13.6909 5.29221,13.1909 7.5,13C 8.83333,11.6667 8.83333,10.3333 7.5,9C 9.03436,8.07697 10.701,7.57697 12.5,7.5C 15.4898,8.32569 18.4898,9.15902 21.5,10C 20.0267,10.7096 19.3601,11.8762 19.5,13.5C 20.791,13.2627 21.791,13.596 22.5,14.5 Z"/>
  </g>
  <g>
    <path style="opacity:0" fill="#fefefe" d="M 29.5,11.5 C 29.5,12.1667 29.5,12.8333 29.5,13.5C 17.6112,12.2077 17.6112,11.541 29.5,11.5 Z"/>
  </g>
  <g>
    <path style="opacity:1" fill="#5d5c5a" d="M 1.5,14.5 C 8.5,14.5 15.5,14.5 22.5,14.5C 24.604,14.2011 26.604,14.5344 28.5,15.5C 28.3764,16.1067 28.0431,16.44 27.5,16.5C 18.8765,17.1451 10.2099,17.1451 1.5,16.5C 1.5,15.8333 1.5,15.1667 1.5,14.5 Z"/>
  </g>
  <g>
    <path style="opacity:1" fill="#8f8e8d" d="M 1.5,16.5 C 10.2099,17.1451 18.8765,17.1451 27.5,16.5C 27.5858,17.4959 27.2524,18.3292 26.5,19C 24.8632,19.6012 23.1966,20.1012 21.5,20.5C 16.1581,19.9936 10.4914,19.8269 4.5,20C 2.93709,19.2411 1.93709,18.0744 1.5,16.5 Z"/>
  </g>
  <g>
    <path style="opacity:0" fill="#fefefe" d="M -0.5,17.5 C 0.639972,18.8014 1.97331,19.9681 3.5,21C 11.1667,21.6667 18.8333,21.6667 26.5,21C 27.6364,19.8549 28.6364,18.6883 29.5,17.5C 29.5,21.5 29.5,25.5 29.5,29.5C 19.5,29.5 9.5,29.5 -0.5,29.5C -0.5,25.5 -0.5,21.5 -0.5,17.5 Z"/>
  </g>
</svg>
